<?xml version="1.0" standalone="no"?><!DOCTYPE svg PUBLIC "-//W3C//DTD SVG 1.1//EN" "http://www.w3.org/Graphics/SVG/1.1/DTD/svg11.dtd"><svg height="1024" node-id="1" sillyvg="true" template-height="1024" template-width="1024" version="1.1" viewBox="0 0 1024 1024" width="1024" xmlns="http://www.w3.org/2000/svg" xmlns:xlink="http://www.w3.org/1999/xlink"><defs node-id="116"><mask height="78.76999" id="mask" maskUnits="userSpaceOnUse" node-id="5" width="147.01999" x="464.54" y="290.95"><path d="M 512.00 294.29 C 519.64 294.05 526.84 297.82 531.00 304.23 C 535.08 299.60 540.91 296.90 547.08 296.78 C 555.57 296.49 563.44 301.18 567.24 308.78 C 570.94 304.90 576.04 302.67 581.40 302.59 C 591.98 302.34 600.74 309.96 600.98 319.59 C 601.04 323.08 599.99 326.51 597.98 329.36 C 603.97 332.03 607.94 337.87 608.22 344.42 C 608.45 354.08 600.06 362.12 589.48 362.37 C 584.06 362.55 578.80 360.52 574.91 356.74 C 571.08 361.96 564.91 364.96 558.44 364.75 C 551.96 364.54 546.01 361.15 542.52 355.69 C 538.85 361.54 532.95 365.40 526.21 365.56 C 520.02 365.60 514.17 362.73 510.42 357.80 C 506.10 364.62 497.82 367.81 490.03 365.65 C 482.25 363.50 476.80 356.50 476.61 348.42 C 476.61 347.99 476.61 347.57 476.61 347.15 C 468.85 342.40 465.75 332.68 469.32 324.32 C 472.89 315.95 482.05 311.47 490.85 313.79 C 491.55 303.16 500.65 294.56 512.00 294.29 Z" fill="#ffffff" fill-rule="nonzero" node-id="120" stroke="none" target-height="73.7637" target-width="142.70361" target-x="465.7464" target-y="294.0502"></path></mask><mask height="200" id="mask-2" maskUnits="userSpaceOnUse" node-id="8" width="382.28998" x="145.33" y="565.33"><path d="M 435.19 568.67 C 438.50 568.67 441.31 571.09 441.79 574.37 L 467.33 748.67 L 517.62 748.67 C 520.06 748.58 522.36 749.82 523.61 751.93 C 524.86 754.03 524.86 756.64 523.61 758.74 C 522.36 760.85 520.06 762.09 517.62 762.00 L 181.71 762.00 C 178.40 762.00 175.60 759.57 175.12 756.30 L 148.74 576.30 C 148.46 574.38 149.02 572.44 150.29 570.98 C 151.55 569.51 153.39 568.67 155.33 568.67 Z" fill="#ffffff" fill-rule="nonzero" node-id="126" stroke="none" target-height="193.42938" target-width="376.40253" target-x="148.45805" target-y="568.6652"></path></mask><mask height="54.639984" id="mask-3" maskUnits="userSpaceOnUse" node-id="11" width="73.33" x="228.67" y="440.33"><path d="M 290.33 443.67 C 292.54 443.67 294.66 444.54 296.23 446.11 C 297.79 447.67 298.67 449.79 298.67 452.00 L 298.67 477.00 C 298.67 479.21 297.79 481.33 296.23 482.89 C 294.66 484.46 292.54 485.33 290.33 485.33 L 278.45 485.33 L 276.45 489.68 C 275.95 490.78 274.90 491.52 273.70 491.63 C 272.50 491.73 271.34 491.18 270.66 490.18 L 267.36 485.33 L 240.33 485.33 C 235.73 485.33 232.00 481.60 232.00 477.00 L 232.00 452.00 C 232.00 447.40 235.73 443.67 240.33 443.67 Z" fill="#ffffff" fill-rule="nonzero" node-id="132" stroke="none" target-height="48.06357" target-width="66.67001" target-x="232" target-y="443.6674"></path></mask><mask height="67.5" id="mask-4" maskUnits="userSpaceOnUse" node-id="14" width="90" x="113.67" y="315.33"><path d="M 192.00 318.67 C 196.60 318.67 200.33 322.40 200.33 327.00 L 200.33 362.42 C 200.33 367.02 196.60 370.75 192.00 370.75 L 175.06 370.75 L 172.00 377.54 C 171.50 378.64 170.45 379.38 169.25 379.49 C 168.05 379.59 166.89 379.04 166.21 378.04 L 161.21 370.75 L 125.33 370.75 C 120.73 370.75 117.00 367.02 117.00 362.42 L 117.00 327.00 C 117.00 322.40 120.73 318.67 125.33 318.67 Z" fill="#ffffff" fill-rule="nonzero" node-id="138" stroke="none" target-height="60.92093" target-width="83.33" target-x="117" target-y="318.67"></path></mask><mask height="91.98999" id="mask-5" maskUnits="userSpaceOnUse" node-id="17" width="86.66998" x="697" y="283.67"><path d="M 740.33 287.00 C 761.56 286.98 779.11 303.54 780.31 324.74 C 781.51 345.94 765.94 364.38 744.84 366.75 L 742.10 371.49 C 741.80 372.01 741.25 372.32 740.66 372.32 C 740.07 372.32 739.52 372.01 739.22 371.49 L 736.52 366.82 C 715.26 364.80 699.34 346.43 700.36 325.09 C 701.37 303.76 718.97 286.99 740.33 287.00 Z" fill="#ffffff" fill-rule="nonzero" node-id="144" stroke="none" target-height="85.34808" target-width="82.172424" target-x="699.3376" target-y="286.97607"></path></mask></defs><path d="M 12.00 12.00 L 1012.00 12.00 L 1012.00 1012.00 L 12.00 1012.00 Z" fill="#ffffff" fill-opacity="0" fill-rule="nonzero" node-id="149" stroke="none" target-height="1000" target-width="1000" target-x="12" target-y="12"></path><path d="M 566.87 201.79 C 792.70 133.46 716.87 440.96 874.37 558.46 C 945.37 611.46 919.37 690.30 851.08 760.96 L 162.44 760.96 C 88.07 694.31 52.24 618.61 118.53 558.46 C 244.37 444.29 155.20 433.46 145.20 344.29 C 191.00 131.79 341.00 270.12 566.87 201.79 Z" fill="#fceaea" fill-rule="nonzero" node-id="151" stroke="none" target-height="629.17004" target-width="893.13" target-x="52.24" target-y="131.79"></path><path d="M 682.79 766.19 C 673.63 663.49 674.63 470.07 761.29 479.62 C 847.95 489.17 745.84 671.44 682.79 766.19 Z" fill="#f6bebd" fill-opacity="0.33" fill-rule="nonzero" node-id="153" stroke="none" target-height="296.11996" target-width="174.32" target-x="673.63" target-y="470.07004"></path><path d="M 683.60 766.38 C 711.68 689.38 777.15 553.71 836.29 589.83 C 895.43 625.95 752.25 685.51 683.60 766.38 Z" fill="#f9d4d4" fill-opacity="0.45" fill-rule="nonzero" node-id="155" stroke="none" target-height="212.66998" target-width="211.83002" target-x="683.6" target-y="553.71"></path><g node-id="374"><path d="M 683.00 767.00 C 682.77 767.00 682.55 766.96 682.34 766.87 C 681.93 766.69 681.61 766.36 681.45 765.95 C 681.29 765.54 681.29 765.08 681.47 764.67 C 684.32 758.07 695.63 734.02 721.33 701.87 C 745.72 671.31 774.37 644.42 806.41 622.00 C 806.90 621.61 807.56 621.52 808.13 621.77 C 808.70 622.02 809.09 622.57 809.13 623.19 C 809.17 623.82 808.86 624.41 808.32 624.73 C 737.21 674.42 696.25 738.89 684.52 766.00 C 684.26 766.61 683.66 767.00 683.00 767.00 Z" fill="#ffffff" fill-opacity="0.59" fill-rule="nonzero" group-id="1" node-id="159" stroke="none" target-height="145.48352" target-width="127.88196" target-x="681.28503" target-y="621.5178"></path></g><g node-id="375"><path d="M 684.00 759.57 L 683.86 759.57 C 683.42 759.53 683.01 759.32 682.73 758.99 C 682.44 758.65 682.30 758.21 682.34 757.77 C 684.12 736.61 705.22 602.77 755.71 519.27 C 756.18 518.48 757.21 518.23 758.00 518.71 C 758.78 519.18 759.03 520.20 758.56 520.99 C 711.79 598.30 688.17 728.19 685.66 758.05 C 685.58 758.91 684.86 759.57 684.00 759.57 Z" fill="#ffffff" fill-opacity="0.59" fill-rule="nonzero" group-id="2" node-id="164" stroke="none" target-height="241.33997" target-width="76.7337" target-x="682.3013" target-y="518.23004"></path></g><path d="M 678.75 765.19 C 686.33 685.90 681.16 522.84 618.89 548.48 C 554.06 575.17 635.78 611.79 678.75 765.19 Z" fill="#f9d4d4" fill-opacity="0.45" fill-rule="nonzero" node-id="167" stroke="none" target-height="242.34998" target-width="132.27002" target-x="554.06" target-y="522.84"></path><path d="M 677.13 764.80 C 659.78 715.72 612.96 624.89 581.53 655.69 C 548.32 688.24 609.41 685.72 677.13 764.80 Z" fill="#f6bebd" fill-opacity="0.33" fill-rule="nonzero" node-id="169" stroke="none" target-height="139.90997" target-width="128.81" target-x="548.32" target-y="624.89"></path><path d="M 681.57 764.17 C 713.08 723.00 809.78 664.25 827.00 709.64 C 843.50 753.12 703.32 748.90 681.57 764.17 Z" fill="#f6bebd" fill-opacity="0.33" fill-rule="nonzero" node-id="171" stroke="none" target-height="99.91998" target-width="161.93" target-x="681.57" target-y="664.25"></path><g node-id="376"><path d="M 680.56 766.46 C 679.84 766.46 679.21 766.00 678.99 765.32 C 678.76 764.64 678.99 763.89 679.56 763.46 C 706.73 744.36 758.56 720.66 808.17 713.77 C 809.05 713.71 809.82 714.34 809.94 715.21 C 810.06 716.07 809.49 716.89 808.63 717.07 C 759.63 723.88 708.33 747.31 681.48 766.19 C 681.21 766.37 680.89 766.46 680.56 766.46 Z" fill="#ffffff" fill-opacity="0.59" fill-rule="nonzero" group-id="3" node-id="175" stroke="none" target-height="52.75049" target-width="131.30054" target-x="678.75946" target-y="713.70966"></path></g><g node-id="377"><path d="M 680.56 766.45 C 679.67 766.45 678.94 765.76 678.90 764.87 C 678.40 755.21 672.69 667.98 623.77 579.64 C 623.42 579.12 623.40 578.44 623.71 577.90 C 624.02 577.35 624.61 577.03 625.23 577.05 C 625.86 577.08 626.42 577.45 626.68 578.02 C 676.00 667.00 681.73 755.00 682.22 764.70 C 682.27 765.62 681.56 766.40 680.64 766.45 Z" fill="#ffffff" fill-opacity="0.59" fill-rule="nonzero" group-id="4" node-id="180" stroke="none" target-height="189.42493" target-width="58.86377" target-x="623.4016" target-y="577.0261"></path></g><g node-id="378"><path d="M 677.33 765.65 C 676.66 765.65 676.06 765.26 675.79 764.65 C 675.65 764.31 660.42 729.89 594.52 673.24 C 594.02 672.87 593.77 672.25 593.88 671.63 C 593.98 671.02 594.41 670.51 595.00 670.32 C 595.59 670.12 596.24 670.28 596.69 670.71 C 663.31 727.97 678.25 761.93 678.86 763.34 C 679.08 763.85 679.03 764.45 678.72 764.91 C 678.41 765.38 677.89 765.66 677.33 765.66 Z" fill="#ffffff" fill-opacity="0.59" fill-rule="nonzero" group-id="5" node-id="185" stroke="none" target-height="95.53778" target-width="85.30823" target-x="593.7746" target-y="670.1246"></path></g><path d="M 322.84 764.38 C 289.57 666.79 244.62 468.78 331.07 457.49 C 417.52 446.20 361.61 657.38 322.84 764.38 Z" fill="#f6bebd" fill-opacity="0.33" fill-rule="nonzero" node-id="188" stroke="none" target-height="318.18005" target-width="172.9" target-x="244.62" target-y="446.2"></path><path d="M 320.57 764.81 C 329.57 683.35 364.07 525.70 430.08 546.75 C 496.09 567.80 368.07 670.00 320.57 764.81 Z" fill="#f9d4d4" fill-opacity="0.45" fill-rule="nonzero" node-id="190" stroke="none" target-height="239.11005" target-width="175.51999" target-x="320.57" target-y="525.7"></path><g node-id="379"><path d="M 322.45 758.67 C 322.35 758.68 322.26 758.68 322.16 758.67 C 321.26 758.51 320.65 757.65 320.80 756.75 C 326.00 726.00 351.10 650.61 408.69 585.07 C 409.31 584.42 410.33 584.37 411.00 584.96 C 411.68 585.55 411.77 586.57 411.20 587.27 C 354.09 652.27 329.25 726.89 324.09 757.27 C 323.95 758.07 323.26 758.66 322.45 758.67 Z" fill="#ffffff" fill-opacity="0.59" fill-rule="nonzero" group-id="6" node-id="194" stroke="none" target-height="174.31085" target-width="91.1174" target-x="320.649" target-y="584.36896"></path></g><g node-id="380"><path d="M 324.31 758.46 C 323.49 758.47 322.79 757.87 322.66 757.06 C 317.57 724.64 308.08 583.06 335.02 497.33 C 335.34 496.51 336.24 496.07 337.08 496.34 C 337.92 496.60 338.41 497.47 338.20 498.33 C 311.44 583.49 320.89 724.33 325.95 756.54 C 326.02 756.98 325.92 757.42 325.66 757.78 C 325.40 758.14 325.01 758.37 324.57 758.44 C 324.48 758.46 324.40 758.46 324.31 758.46 Z" fill="#ffffff" fill-opacity="0.59" fill-rule="nonzero" group-id="7" node-id="199" stroke="none" target-height="262.3938" target-width="30.331726" target-x="308.08" target-y="496.07147"></path></g><path d="M 322.72 766.34 C 311.27 687.51 263.49 518.49 209.08 558.18 C 152.44 599.50 244.57 627.51 322.72 766.34 Z" fill="#f9d4d4" fill-opacity="0.45" fill-rule="nonzero" node-id="202" stroke="none" target-height="247.85004" target-width="170.28" target-x="152.44" target-y="518.49"></path><path d="M 322.91 763.26 C 294.42 719.70 221.46 633.81 198.24 671.20 C 173.70 710.70 238.36 702.51 322.91 763.26 Z" fill="#f6bebd" fill-opacity="0.33" fill-rule="nonzero" node-id="204" stroke="none" target-height="129.45001" target-width="149.21" target-x="173.7" target-y="633.81"></path><path d="M 319.79 762.47 C 349.20 719.53 424.00 635.21 446.38 673.07 C 470.08 713.09 405.60 703.53 319.79 762.47 Z" fill="#f6bebd" fill-opacity="0.33" fill-rule="nonzero" node-id="206" stroke="none" target-height="127.25995" target-width="150.28998" target-x="319.79" target-y="635.21"></path><g node-id="381"><path d="M 324.11 760.33 C 323.71 760.33 323.31 760.19 323.01 759.92 C 322.32 759.31 322.25 758.26 322.85 757.57 C 344.41 732.92 382.19 707.03 429.23 684.67 C 430.04 684.38 430.93 684.75 431.30 685.52 C 431.67 686.30 431.39 687.23 430.66 687.67 C 384.02 709.83 346.66 735.44 325.36 759.75 C 325.05 760.12 324.59 760.33 324.11 760.33 Z" fill="#ffffff" fill-opacity="0.59" fill-rule="nonzero" group-id="8" node-id="210" stroke="none" target-height="75.953064" target-width="109.423676" target-x="322.24777" target-y="684.3798"></path></g><g node-id="382"><path d="M 321.00 756.56 C 320.26 756.56 319.61 756.07 319.40 755.37 C 316.61 746.02 290.12 661.88 221.27 587.29 C 220.72 586.61 220.79 585.61 221.44 585.01 C 222.08 584.41 223.08 584.42 223.72 585.03 C 293.07 660.17 319.78 745.03 322.59 754.42 C 322.72 754.84 322.67 755.30 322.46 755.69 C 322.25 756.08 321.90 756.37 321.47 756.49 C 321.32 756.54 321.16 756.56 321.00 756.56 Z" fill="#ffffff" fill-opacity="0.59" fill-rule="nonzero" group-id="9" node-id="215" stroke="none" target-height="172.14679" target-width="102.00467" target-x="220.7153" target-y="584.41364"></path></g><g node-id="383"><path d="M 321.61 762.00 C 321.08 762.00 320.58 761.75 320.27 761.32 C 320.00 761.00 292.52 724.56 215.00 685.15 C 214.17 684.73 213.84 683.72 214.25 682.89 C 214.67 682.07 215.68 681.73 216.51 682.15 C 294.83 722.00 322.68 759.00 323.00 759.34 C 323.37 759.85 323.43 760.52 323.15 761.08 C 322.86 761.64 322.29 762.00 321.66 762.00 Z" fill="#ffffff" fill-opacity="0.59" fill-rule="nonzero" group-id="10" node-id="220" stroke="none" target-height="80.26868" target-width="109.59148" target-x="213.83803" target-y="681.73303"></path></g><path d="M 117.00 761.17 C 117.00 760.71 117.37 760.34 117.83 760.33 L 921.17 760.33 C 921.63 760.34 922.00 760.71 922.00 761.17 C 922.00 761.63 921.63 762.00 921.17 762.00 L 117.83 762.00 C 117.37 762.00 117.00 761.63 117.00 761.17 Z" fill="#a89b9c" fill-rule="nonzero" node-id="223" stroke="none" target-height="1.6699829" target-width="805.0001" target-x="116.99997" target-y="760.33"></path><path d="M 549.50 487.00 C 391.50 508.33 351.17 630.33 356.17 685.33 L 438.67 760.33 C 438.67 760.33 637.83 761.17 689.50 760.33 C 721.04 730.75 726.17 667.83 726.17 667.83 C 747.00 573.67 675.33 488.67 549.50 487.00 Z" fill="#ffffff" fill-rule="nonzero" node-id="225" stroke="none" target-height="274.16998" target-width="395.83" target-x="351.17" target-y="487"></path><path d="M 438.31 660.10 C 437.47 660.10 436.77 659.48 436.66 658.65 C 431.78 621.48 445.27 593.75 453.08 584.28 C 453.44 583.77 454.06 583.51 454.68 583.60 C 455.30 583.68 455.81 584.11 456.02 584.70 C 456.22 585.29 456.08 585.95 455.65 586.40 C 448.16 595.48 435.24 622.18 439.97 658.22 C 440.09 659.13 439.44 659.97 438.53 660.09 Z" fill="#a89b9c" fill-rule="nonzero" node-id="227" stroke="none" target-height="76.59332" target-width="24.443085" target-x="431.78" target-y="583.50665"></path><path d="M 485.33 712.83 C 541.17 678.67 616.17 688.67 649.50 697.00 C 638.07 676.67 643.88 651.70 648.78 640.26 L 725.33 656.17 C 726.72 671.17 721.17 712.00 702.83 739.50 C 656.17 781.17 511.17 742.00 502.83 738.67 C 502.00 737.83 492.00 741.17 490.33 741.17 L 482.83 738.67 L 474.50 734.50 C 473.11 733.94 470.83 739.00 469.50 740.33 C 468.17 741.66 464.78 743.11 463.67 744.50 L 460.33 739.50 C 465.21 731.70 467.83 719.50 485.33 712.83 Z" fill="#fceaea" fill-rule="nonzero" node-id="229" stroke="none" target-height="140.90991" target-width="266.38992" target-x="460.33" target-y="640.26"></path><path d="M 489.60 743.00 C 488.10 743.00 486.59 742.85 485.12 742.55 C 480.19 741.65 475.85 738.75 473.12 734.55 C 472.63 733.77 472.88 732.74 473.66 732.25 C 474.44 731.76 475.47 732.01 475.96 732.79 C 478.20 736.24 481.78 738.60 485.83 739.31 C 490.82 740.35 496.02 739.32 500.25 736.47 C 501.00 736.02 501.97 736.23 502.48 736.94 C 502.98 737.66 502.84 738.65 502.16 739.20 C 498.46 741.72 494.08 743.04 489.60 743.00 Z" fill="#a89b9c" fill-rule="nonzero" node-id="231" stroke="none" target-height="11.281006" target-width="30.346375" target-x="472.634" target-y="731.764"></path><path d="M 357.00 668.67 C 356.08 668.67 355.33 667.92 355.33 667.00 C 355.33 625.47 377.92 581.18 417.33 545.48 C 456.93 509.58 506.47 488.99 553.24 488.99 C 605.87 486.19 651.30 501.38 684.53 532.90 C 715.13 561.94 732.00 602.00 732.00 645.72 C 732.00 649.46 731.85 661.88 730.00 664.60 C 729.45 665.30 728.46 665.45 727.73 664.94 C 727.01 664.44 726.80 663.46 727.26 662.70 C 728.04 661.52 728.70 653.70 728.70 645.70 C 728.70 602.91 712.20 563.70 682.25 535.30 C 649.69 504.42 605.12 489.55 553.33 492.30 C 507.33 492.30 458.58 512.57 419.58 547.93 C 380.89 582.99 358.70 626.39 358.70 666.93 C 358.72 667.39 358.55 667.84 358.23 668.17 C 357.90 668.50 357.46 668.68 357.00 668.67 Z" fill="#a89b9c" fill-rule="nonzero" node-id="233" stroke="none" target-height="182.48871" target-width="376.66998" target-x="355.33002" target-y="486.19"></path><path d="M 522.00 433.00 C 525.44 468.17 527.83 482.52 527.83 492.00 C 532.83 524.50 585.33 519.50 592.83 492.83 C 588.67 482.83 583.67 441.17 590.33 395.33 Z" fill="#fceaea" fill-rule="nonzero" node-id="235" stroke="none" target-height="129.17001" target-width="70.83002" target-x="522" target-y="395.33"></path><path d="M 557.91 516.30 C 557.00 516.30 556.09 516.30 555.18 516.22 C 539.18 515.22 528.34 506.29 526.18 492.22 L 526.18 491.97 C 526.18 486.56 525.36 479.41 524.02 467.55 C 523.02 458.78 521.79 447.88 520.35 433.17 L 520.24 432.07 L 592.47 392.22 L 591.99 395.54 C 589.05 416.02 588.12 436.74 589.20 457.40 C 590.15 475.10 592.49 487.62 594.38 492.16 L 594.60 492.70 L 594.45 493.25 C 592.45 500.48 587.03 506.77 579.28 510.96 C 572.70 514.47 565.36 516.31 557.91 516.30 Z M 529.50 491.87 C 531.50 504.17 541.11 512.02 555.38 512.87 C 574.30 514.04 587.74 503.53 591.07 492.87 C 586.75 481.52 582.40 441.79 588.22 398.36 L 523.77 434.00 C 525.16 448.14 526.35 458.71 527.32 467.24 C 528.67 479.08 529.49 486.29 529.50 491.87 Z" fill="#a89b9c" fill-rule="nonzero" node-id="237" stroke="none" target-height="124.08612" target-width="74.359985" target-x="520.24" target-y="392.22003"></path><path d="M 503.00 310.18 C 507.31 308.64 513.00 308.76 520.00 309.30 C 527.00 309.84 535.00 310.74 543.63 310.54 C 553.96 310.29 561.99 312.38 568.28 316.29 C 574.57 320.20 579.28 326.00 582.71 333.41 C 589.71 348.30 591.71 369.41 592.31 393.56 C 592.91 417.71 590.78 436.88 583.98 450.48 C 580.89 456.96 576.10 462.49 570.13 466.48 C 564.13 470.39 556.72 472.89 547.44 473.80 C 525.75 475.93 505.67 473.37 494.37 457.06 C 482.95 440.59 479.98 409.48 494.57 352.98 L 494.65 352.67 L 494.65 352.35 C 492.65 337.44 492.65 327.54 494.30 321.02 C 494.86 318.36 496.03 315.87 497.72 313.74 C 499.13 312.10 500.95 310.87 503.00 310.18 Z" fill="#fceaea" fill-rule="nonzero" node-id="239" stroke="none" target-height="167.29001" target-width="112.92996" target-x="479.98" target-y="308.64"></path><path d="M 535.22 476.13 C 515.02 476.13 501.45 470.26 492.98 458.04 C 479.61 438.75 479.59 404.26 492.98 352.60 L 492.98 352.60 C 490.98 338.15 490.92 327.70 492.67 320.65 C 493.30 317.75 494.58 315.03 496.43 312.70 C 498.02 310.82 500.10 309.41 502.43 308.62 L 502.43 308.62 C 506.90 307.02 512.52 307.06 520.13 307.62 C 521.49 307.72 522.89 307.84 524.33 307.96 C 530.73 308.62 537.16 308.91 543.59 308.85 C 553.89 308.59 562.26 310.57 569.16 314.85 C 575.52 318.85 580.45 324.64 584.22 332.68 C 591.92 349.08 593.47 372.63 593.97 393.50 C 594.61 419.98 591.91 438.32 585.47 451.21 C 582.25 457.98 577.25 463.75 571.00 467.90 C 564.63 472.09 557.00 474.57 547.56 475.49 C 543.19 475.92 539.07 476.14 535.22 476.13 Z M 503.52 311.75 C 501.74 312.35 500.16 313.42 498.94 314.84 C 497.42 316.78 496.36 319.04 495.86 321.45 C 494.22 328.07 494.34 338.12 496.24 352.15 L 496.33 352.80 L 496.17 353.43 C 483.26 403.43 483.11 437.95 495.71 456.14 C 505.05 469.61 521.42 474.70 547.25 472.14 C 556.11 471.28 563.25 468.97 569.19 465.09 C 574.93 461.25 579.52 455.94 582.47 449.70 C 588.66 437.33 591.25 419.49 590.62 393.57 C 590.13 373.04 588.62 349.93 581.18 334.08 C 577.69 326.65 573.18 321.28 567.38 317.67 C 561.05 313.74 553.28 311.95 543.65 312.17 C 537.10 312.23 530.55 311.94 524.03 311.28 C 522.60 311.15 521.20 311.04 519.85 310.93 C 512.68 310.38 507.45 310.32 503.52 311.72 Z" fill="#a89b9c" fill-rule="nonzero" node-id="241" stroke="none" target-height="169.11667" target-width="115.01999" target-x="479.59" target-y="307.02"></path><path d="M 512.00 294.29 C 519.64 294.05 526.84 297.82 531.00 304.23 C 535.08 299.60 540.91 296.90 547.08 296.78 C 555.57 296.49 563.44 301.18 567.24 308.78 C 570.94 304.90 576.04 302.67 581.40 302.59 C 591.98 302.34 600.74 309.96 600.98 319.59 C 601.04 323.08 599.99 326.51 597.98 329.36 C 603.97 332.03 607.94 337.87 608.22 344.42 C 608.45 354.08 600.06 362.12 589.48 362.37 C 584.06 362.55 578.80 360.52 574.91 356.74 C 571.08 361.96 564.91 364.96 558.44 364.75 C 551.96 364.54 546.01 361.15 542.52 355.69 C 538.85 361.54 532.95 365.40 526.21 365.56 C 520.02 365.60 514.17 362.73 510.42 357.80 C 506.10 364.62 497.82 367.81 490.03 365.65 C 482.25 363.50 476.80 356.50 476.61 348.42 C 476.61 347.99 476.61 347.57 476.61 347.15 C 468.85 342.40 465.75 332.68 469.32 324.32 C 472.89 315.95 482.05 311.47 490.85 313.79 C 491.55 303.16 500.65 294.56 512.00 294.29 Z" fill="#bd9c9c" fill-rule="nonzero" node-id="243" stroke="none" target-height="73.7637" target-width="142.70361" target-x="465.7464" target-y="294.0502"></path><g node-id="384"><path d="M 531.00 304.23 L 528.17 306.00 L 530.56 309.75 L 533.49 306.40 Z M 567.24 308.81 L 564.24 310.26 L 566.36 314.65 L 569.68 311.09 Z M 598.00 329.43 L 595.26 327.53 L 593.00 330.74 L 596.53 332.43 Z M 574.93 356.81 L 577.29 354.44 L 574.50 351.68 L 572.22 354.87 Z M 542.54 355.76 L 545.39 354.02 L 542.58 349.42 L 539.70 354.00 Z M 510.44 357.87 L 513.04 355.78 L 510.13 352.15 L 507.63 356.08 Z M 476.65 347.22 L 479.98 347.36 L 480.07 345.36 L 478.40 344.36 Z M 490.89 313.86 L 490.04 317.08 L 493.95 318.08 L 494.21 314.08 Z M 512.00 294.29 L 512.08 297.62 C 518.55 297.41 524.65 300.60 528.18 306.02 L 530.99 304.23 L 533.80 302.44 C 529.01 295.06 520.71 290.72 511.91 291.00 Z M 531.00 304.23 L 533.51 306.42 C 536.98 302.50 541.93 300.21 547.16 300.11 L 547.08 296.78 L 547.00 293.45 C 539.90 293.58 533.17 296.68 528.47 302.00 Z M 547.08 296.78 L 547.16 300.11 C 554.35 299.86 561.02 303.83 564.24 310.26 L 567.24 308.81 L 570.24 307.36 C 565.89 298.57 556.80 293.13 547.00 293.45 Z M 567.24 308.78 L 569.68 311.06 C 572.76 307.83 577.02 305.98 581.48 305.93 L 581.40 302.59 L 581.31 299.26 C 575.06 299.37 569.11 301.98 564.80 306.51 Z M 581.40 302.59 L 581.48 305.93 C 590.48 305.71 597.48 312.17 597.64 319.71 L 600.98 319.63 L 604.31 319.55 C 604.03 307.77 593.45 298.97 581.31 299.26 Z M 600.98 319.59 L 597.64 319.67 C 597.70 322.45 596.86 325.18 595.26 327.46 L 598.00 329.36 L 600.74 331.26 C 603.15 327.82 604.40 323.71 604.31 319.51 Z M 597.98 329.36 L 596.54 332.36 C 601.40 334.50 604.63 339.20 604.89 344.50 L 608.22 344.42 L 611.56 344.34 C 611.25 336.53 606.55 329.56 599.42 326.34 Z M 608.22 344.42 L 604.89 344.50 C 605.07 352.04 598.43 358.82 589.40 359.04 L 589.48 362.37 L 589.56 365.71 C 601.69 365.42 611.84 356.12 611.56 344.34 Z M 589.48 362.37 L 589.40 359.04 C 584.89 359.20 580.51 357.52 577.27 354.37 L 574.91 356.74 L 572.56 359.10 C 577.09 363.52 583.23 365.91 589.56 365.71 Z M 574.91 356.74 L 572.20 354.80 C 569.23 358.89 564.51 361.35 559.45 361.43 L 559.53 364.76 L 559.61 368.10 C 566.76 367.96 573.43 364.47 577.61 358.67 Z M 559.53 364.74 L 559.45 361.41 C 553.77 361.61 548.42 358.79 545.37 354.00 L 542.52 355.74 L 539.68 357.47 C 543.94 364.33 551.54 368.40 559.61 368.15 Z M 542.53 355.67 L 539.70 354.00 C 536.52 359.06 531.57 362.18 526.13 362.31 L 526.21 365.64 L 526.29 368.98 C 534.29 368.78 541.18 364.18 545.34 357.54 Z M 526.22 365.54 L 526.14 362.21 C 520.99 362.25 516.12 359.87 513.00 355.78 L 510.40 357.87 L 507.80 359.96 C 512.20 365.70 519.04 369.03 526.27 368.96 Z M 510.43 357.78 L 507.62 355.99 C 504.95 360.24 500.33 362.86 495.31 362.99 L 495.39 366.33 L 495.47 369.66 C 502.69 369.50 509.36 365.75 513.24 359.66 Z M 495.43 366.29 L 495.30 363.00 C 487.06 363.17 480.22 356.65 480.00 348.41 L 476.66 348.49 L 473.33 348.57 C 473.62 360.53 483.55 370.00 495.51 369.71 Z M 476.66 348.40 L 480.00 348.32 C 480.00 347.99 480.00 347.65 480.00 347.27 L 476.67 347.13 L 473.34 346.98 C 473.34 347.44 473.34 347.98 473.34 348.48 Z M 476.66 347.13 L 478.41 344.29 C 474.09 341.67 471.39 337.05 471.21 332.00 L 467.88 332.08 L 464.55 332.16 C 464.72 339.51 468.62 346.27 474.89 350.11 Z M 467.88 332.00 L 471.21 331.92 C 471.11 327.94 472.60 324.09 475.35 321.21 C 478.09 318.33 481.87 316.65 485.85 316.56 L 485.77 313.23 L 485.69 309.90 C 473.73 310.19 464.26 320.12 464.55 332.08 Z M 485.77 313.23 L 485.85 316.56 C 487.26 316.53 488.66 316.69 490.02 317.05 L 490.87 313.83 L 491.71 310.60 C 489.75 310.09 487.73 309.85 485.71 309.90 Z M 490.87 313.83 L 494.19 314.04 C 494.76 305.16 502.36 297.83 512.07 297.59 L 511.99 294.26 L 511.91 290.93 C 498.91 291.24 488.34 301.11 487.54 313.61 Z" fill="#a89b9c" fill-rule="nonzero" group-id="11" node-id="247" stroke="none" target-height="79.27405" target-width="147.57513" target-x="464.2649" target-y="290.72104"></path></g><path d="M 609.01 398.13 C 609.01 405.03 603.41 410.63 596.51 410.63 C 589.61 410.63 584.01 405.03 584.01 398.13 C 584.01 391.23 589.61 385.63 596.51 385.63 C 603.41 385.63 609.01 391.23 609.01 398.13 Z" fill="#fceaea" fill-rule="nonzero" node-id="250" stroke="none" target-height="25.00003" target-width="25" target-x="584.01" target-y="385.63"></path><path d="M 596.50 412.29 C 588.80 412.19 582.63 405.90 582.68 398.20 C 582.72 390.51 588.98 384.29 596.67 384.29 C 604.37 384.29 610.63 390.51 610.67 398.20 C 610.72 405.90 604.55 412.19 596.85 412.29 Z M 596.50 387.29 L 596.24 387.29 C 590.64 387.36 586.15 391.94 586.19 397.53 C 586.23 403.13 590.77 407.65 596.37 407.65 C 601.97 407.65 606.51 403.13 606.55 397.53 C 606.59 391.94 602.10 387.36 596.50 387.29 Z" fill="#a89b9c" fill-rule="nonzero" node-id="252" stroke="none" target-height="27.998901" target-width="28.095703" target-x="582.62714" target-y="384.2911"></path><path d="M 505.50 392.04 C 505.50 393.42 504.38 394.54 503.00 394.54 C 501.62 394.54 500.50 393.42 500.50 392.04 C 500.50 390.66 501.62 389.54 503.00 389.54 C 504.38 389.54 505.50 390.66 505.50 392.04 Z" fill="#a89b9c" fill-rule="nonzero" node-id="254" stroke="none" target-height="4.9999695" target-width="5.0000305" target-x="500.5" target-y="389.54"></path><path d="M 543.82 391.12 C 543.82 392.50 542.70 393.62 541.32 393.62 C 539.94 393.62 538.82 392.50 538.82 391.12 C 538.82 389.74 539.94 388.62 541.32 388.62 C 542.70 388.62 543.82 389.74 543.82 391.12 Z" fill="#a89b9c" fill-rule="nonzero" node-id="256" stroke="none" target-height="5" target-width="5" target-x="538.82" target-y="388.62"></path><path d="M 652.20 699.84 C 651.94 699.84 651.69 699.78 651.46 699.67 C 644.37 696.14 640.74 687.01 640.66 672.51 C 640.58 658.01 644.08 643.70 645.15 639.67 C 645.26 639.05 645.71 638.55 646.31 638.37 C 646.91 638.19 647.57 638.36 648.00 638.82 C 648.43 639.27 648.58 639.93 648.37 640.52 C 643.29 659.66 640.37 690.41 652.94 696.68 C 653.34 696.88 653.64 697.22 653.78 697.64 C 653.93 698.06 653.90 698.52 653.70 698.92 C 653.41 699.48 652.83 699.84 652.20 699.84 Z" fill="#a89b9c" fill-rule="nonzero" node-id="258" stroke="none" target-height="61.649963" target-width="13.557556" target-x="640.37" target-y="638.1923"></path><path d="M 632.64 760.00 C 622.11 760.00 610.59 759.37 598.08 758.11 C 553.67 753.62 512.33 742.66 500.72 739.41 C 500.11 739.28 499.63 738.82 499.46 738.22 C 499.30 737.63 499.48 736.98 499.93 736.56 C 500.38 736.13 501.03 736.00 501.62 736.20 C 535.62 745.71 588.45 756.55 632.34 756.55 C 657.91 756.55 680.42 752.88 694.34 743.10 C 715.57 728.24 724.73 687.70 724.46 663.66 C 724.45 663.22 724.63 662.79 724.93 662.47 C 725.24 662.16 725.67 661.98 726.11 661.97 L 726.11 661.97 C 727.02 661.97 727.76 662.71 727.77 663.62 C 727.73 678.69 725.36 693.66 720.72 708.00 C 716.72 720.31 709.18 736.87 696.29 745.90 C 682.82 755.29 661.48 760.00 632.64 760.00 Z M 459.77 746.19 C 459.20 746.20 458.63 746.13 458.07 745.99 C 456.53 745.71 455.39 744.40 455.33 742.83 C 455.34 741.95 456.04 741.23 456.92 741.18 C 457.80 741.14 458.56 741.79 458.66 742.67 C 459.37 742.92 460.14 742.96 460.87 742.78 C 464.33 742.23 469.34 739.33 473.05 732.84 C 473.53 732.08 474.51 731.84 475.29 732.28 C 476.06 732.72 476.36 733.69 475.95 734.49 C 471.15 742.90 464.11 746.19 459.77 746.19 Z M 458.67 742.83 L 458.67 742.83 Z" fill="#a89b9c" fill-rule="nonzero" node-id="260" stroke="none" target-height="98.03003" target-width="272.44003" target-x="455.33" target-y="661.97"></path><path d="M 638.67 661.43 L 625.33 603.93 C 632.56 601.70 646.67 597.59 645.33 598.93 C 643.99 600.27 697.83 622.28 719.50 633.67 C 722.56 639.22 732.00 653.09 725.33 661.43 C 702.83 644.76 654.50 656.15 638.67 661.43 Z" fill="#ffffff" fill-rule="nonzero" node-id="262" stroke="none" target-height="63.839966" target-width="106.66998" target-x="625.33" target-y="597.59"></path><path d="M 727.83 665.33 C 727.51 665.33 727.21 665.24 726.94 665.07 C 699.32 647.50 657.94 658.52 635.76 664.44 L 634.86 664.69 L 634.18 664.04 C 621.75 652.10 618.54 635.82 618.04 624.26 C 617.47 610.02 620.32 595.86 626.33 582.94 C 626.77 582.18 627.72 581.88 628.51 582.27 C 629.30 582.65 629.66 583.58 629.33 584.39 C 623.54 596.81 620.79 610.43 621.33 624.12 C 621.80 634.85 624.70 649.87 635.78 660.98 C 658.69 654.88 700.22 644.14 728.69 662.26 C 729.31 662.66 729.59 663.42 729.38 664.13 C 729.17 664.84 728.53 665.33 727.79 665.33 Z" fill="#a89b9c" fill-rule="nonzero" node-id="264" stroke="none" target-height="83.44751" target-width="112.11511" target-x="617.47455" target-y="581.88324"></path><path d="M 461.17 747.00 C 460.25 747.00 459.50 746.25 459.50 745.33 C 459.50 731.33 467.72 719.33 483.92 709.89 C 504.49 697.83 538.31 690.00 576.72 688.40 C 610.41 686.99 641.66 690.87 654.48 698.05 C 655.03 698.32 655.39 698.88 655.41 699.50 C 655.43 700.11 655.11 700.69 654.57 701.00 C 654.03 701.30 653.37 701.29 652.85 700.96 C 640.52 694.05 609.98 690.34 576.85 691.73 C 538.97 693.31 505.71 700.98 485.60 712.73 C 470.49 721.59 462.82 732.55 462.82 745.30 C 462.83 745.75 462.66 746.18 462.35 746.50 C 462.04 746.82 461.62 747.00 461.17 747.00 Z" fill="#a89b9c" fill-rule="nonzero" node-id="266" stroke="none" target-height="60.01001" target-width="195.92932" target-x="459.5" target-y="686.99"></path><path d="M 497.43 412.44 C 486.38 412.57 477.32 403.73 477.19 392.68 C 477.06 381.63 485.90 372.57 496.95 372.44 L 496.95 372.44 C 508.00 372.16 517.17 380.89 517.45 391.94 C 517.73 402.99 509.00 412.16 497.95 412.44 Z M 497.43 375.77 L 497.00 375.77 C 488.10 375.89 480.96 383.16 481.02 392.06 C 481.08 400.96 488.31 408.15 497.21 408.15 C 506.11 408.15 513.34 400.96 513.40 392.06 C 513.46 383.16 506.32 375.89 497.42 375.77 Z" fill="#a89b9c" fill-rule="nonzero" node-id="268" stroke="none" target-height="40.408722" target-width="40.66867" target-x="477.05746" target-y="372.16382"></path><path d="M 542.42 412.44 C 531.20 412.30 522.20 403.13 522.27 391.92 C 522.34 380.70 531.45 371.64 542.67 371.64 C 553.89 371.64 563.00 380.70 563.07 391.92 C 563.14 403.13 554.14 412.30 542.92 412.44 Z M 542.42 375.77 L 542.00 375.77 C 533.10 375.89 525.96 383.16 526.02 392.06 C 526.08 400.96 533.31 408.15 542.21 408.15 C 551.11 408.15 558.34 400.96 558.40 392.06 C 558.46 383.16 551.32 375.89 542.42 375.77 Z" fill="#a89b9c" fill-rule="nonzero" node-id="270" stroke="none" target-height="40.798462" target-width="40.936707" target-x="522.20166" target-y="371.64154"></path><path d="M 561.77 394.41 C 560.96 394.41 560.27 393.84 560.12 393.05 C 559.98 392.25 560.42 391.47 561.17 391.18 C 565.49 389.52 575.83 386.01 578.48 389.40 C 578.98 390.13 578.83 391.12 578.13 391.67 C 577.43 392.21 576.43 392.12 575.85 391.45 C 574.85 390.74 568.85 391.78 562.37 394.29 C 562.18 394.37 561.98 394.41 561.77 394.41 Z" fill="#a89b9c" fill-rule="nonzero" node-id="272" stroke="none" target-height="8.401855" target-width="19.006714" target-x="559.9769" target-y="386.01004"></path><path d="M 524.00 395.25 C 519.79 393.84 517.00 395.11 516.93 395.16 L 515.45 392.16 C 515.61 392.08 519.45 390.21 525.06 392.07 Z" fill="#a89b9c" fill-rule="nonzero" node-id="274" stroke="none" target-height="5.0400085" target-width="9.609985" target-x="515.45" target-y="390.21"></path><path d="M 530.68 449.50 C 527.84 449.51 525.07 448.65 522.73 447.05 C 522.03 446.51 521.87 445.52 522.37 444.79 C 522.86 444.06 523.84 443.84 524.60 444.29 C 529.55 447.65 536.28 446.37 539.66 441.43 C 539.97 440.89 540.57 440.57 541.19 440.60 C 541.81 440.63 542.37 441.01 542.63 441.58 C 542.88 442.15 542.80 442.82 542.41 443.31 C 539.77 447.19 535.37 449.51 530.68 449.50 Z" fill="#a89b9c" fill-rule="nonzero" node-id="276" stroke="none" target-height="8.937927" target-width="21.01184" target-x="521.8711" target-y="440.56982"></path><path d="M 516.00 427.78 L 516.00 427.78 C 511.72 427.65 510.00 425.78 509.26 424.19 C 506.35 417.81 515.63 405.92 517.52 403.60 C 518.10 402.88 519.15 402.78 519.87 403.36 C 520.59 403.94 520.69 404.99 520.11 405.71 C 515.11 411.81 510.85 419.64 512.29 422.81 C 512.76 423.81 514.04 424.38 516.10 424.45 C 516.97 424.52 517.64 425.24 517.64 426.12 C 517.64 426.99 516.97 427.71 516.10 427.78 Z" fill="#a89b9c" fill-rule="nonzero" node-id="278" stroke="none" target-height="25.002686" target-width="14.342682" target-x="506.35" target-y="402.77734"></path><path d="M 435.19 568.67 C 438.50 568.67 441.31 571.09 441.79 574.37 L 467.33 748.67 L 517.62 748.67 C 520.06 748.58 522.36 749.82 523.61 751.93 C 524.86 754.03 524.86 756.64 523.61 758.74 C 522.36 760.85 520.06 762.09 517.62 762.00 L 181.71 762.00 C 178.40 762.00 175.60 759.57 175.12 756.30 L 148.74 576.30 C 148.46 574.38 149.02 572.44 150.29 570.98 C 151.55 569.51 153.39 568.67 155.33 568.67 Z" fill="#e0b8b8" fill-rule="nonzero" node-id="280" stroke="none" target-height="193.42938" target-width="376.40253" target-x="148.45805" target-y="568.6652"></path><g node-id="385"><path d="M 441.79 574.37 L 445.09 573.88 L 445.09 573.88 Z M 467.33 748.67 L 464.03 749.15 L 464.45 752.00 L 467.33 752.00 Z M 517.62 748.67 L 517.62 745.33 L 517.62 745.33 Z M 517.62 762.00 L 517.62 765.33 L 517.62 765.33 Z M 181.71 762.00 L 181.71 765.33 L 181.71 765.33 Z M 175.12 756.30 L 171.82 756.78 L 171.82 756.78 Z M 148.74 576.30 L 145.44 576.78 L 145.44 576.78 Z M 435.19 568.67 L 435.19 572.00 C 436.85 572.00 438.25 573.21 438.49 574.85 L 441.79 574.37 L 445.09 573.88 C 444.37 568.97 440.15 565.33 435.19 565.33 Z M 441.79 574.37 L 438.49 574.85 L 464.00 749.15 L 467.30 748.67 L 470.60 748.18 L 445.06 573.88 Z M 467.33 748.67 L 467.33 752.00 L 517.62 752.00 L 517.62 745.33 L 467.33 745.33 Z M 517.62 748.67 L 517.62 752.00 C 519.46 752.00 520.95 753.49 520.95 755.33 L 527.62 755.33 C 527.62 749.81 523.14 745.33 517.62 745.33 Z M 524.29 755.33 L 521.00 755.33 C 521.00 757.17 519.51 758.66 517.67 758.67 L 517.67 765.33 C 523.19 765.33 527.67 760.85 527.67 755.33 Z M 517.62 762.00 L 517.62 758.67 L 181.71 758.67 L 181.71 765.33 L 517.62 765.33 Z M 181.71 762.00 L 181.71 758.67 C 180.06 758.67 178.66 757.45 178.42 755.82 L 175.12 756.30 L 171.82 756.78 C 172.54 761.69 176.75 765.33 181.71 765.33 Z M 175.12 756.30 L 178.42 755.82 L 152.00 575.82 L 148.70 576.30 L 145.40 576.78 L 171.78 756.78 Z M 148.74 576.30 L 152.04 575.82 C 151.90 574.86 152.18 573.89 152.81 573.16 C 153.44 572.42 154.36 572.00 155.33 572.00 L 155.33 565.33 C 152.43 565.33 149.67 566.60 147.77 568.79 C 145.87 570.99 145.02 573.91 145.44 576.78 Z M 155.33 568.67 L 155.33 572.00 L 435.19 572.00 L 435.19 565.33 L 155.33 565.33 Z" fill="#a89b9c" fill-rule="nonzero" group-id="12" node-id="284" stroke="none" target-height="200.0028" target-width="382.65112" target-x="145.01884" target-y="565.32715"></path></g><path d="M 604.50 378.67 C 594.50 301.33 549.50 292.83 521.17 305.33 C 501.44 305.33 476.50 301.84 527.83 307.83 C 579.16 313.82 585.89 357.00 586.17 377.83 C 585.61 381.73 593.17 388.00 604.50 378.67 Z" fill="#ffffff" fill-rule="nonzero" node-id="287" stroke="none" target-height="95.17001" target-width="128" target-x="476.5" target-y="292.83"></path><path d="M 593.41 385.21 C 591.61 385.24 589.84 384.79 588.27 383.93 C 585.75 382.51 584.27 380.04 584.50 377.75 C 583.73 324.05 548.50 311.93 527.64 309.49 C 515.64 308.08 507.74 307.20 503.05 306.67 L 498.60 306.16 C 497.00 305.97 495.60 305.81 495.77 304.16 C 495.94 302.51 496.91 302.58 499.85 302.78 C 504.07 303.06 512.78 303.64 520.85 303.65 C 536.72 296.76 553.97 297.41 568.22 305.45 C 593.65 319.79 602.90 353.06 606.22 378.45 L 606.34 379.37 L 605.63 379.95 C 600.58 384.05 596.46 385.21 593.41 385.21 Z M 524.49 305.76 L 528.03 306.18 C 550.91 308.85 567.58 319.03 577.59 336.44 C 585.79 350.70 587.69 366.81 587.83 377.82 L 587.83 378.07 C 587.71 378.87 588.41 380.18 589.92 381.07 C 591.14 381.76 595.61 383.51 602.73 377.99 C 599.45 353.49 590.49 321.89 566.56 308.40 C 553.92 301.24 538.73 300.33 524.49 305.76 Z" fill="#a89b9c" fill-rule="nonzero" node-id="289" stroke="none" target-height="88.475494" target-width="110.73999" target-x="495.60004" target-y="296.76"></path><path d="M 615.34 397.00 C 615.34 409.88 605.64 420.33 593.67 420.33 C 581.70 420.33 572.00 409.88 572.00 397.00 C 572.00 384.12 581.70 373.67 593.67 373.67 C 605.64 373.67 615.34 384.12 615.34 397.00 Z" fill="#ffffff" fill-rule="nonzero" node-id="291" stroke="none" target-height="46.660004" target-width="43.339966" target-x="572" target-y="373.67"></path><path d="M 593.67 422.00 C 580.80 422.00 570.33 410.79 570.33 397.00 C 570.33 383.21 580.80 372.00 593.67 372.00 C 606.54 372.00 617.00 383.21 617.00 397.00 C 617.00 410.79 606.53 422.00 593.67 422.00 Z M 593.67 375.33 C 582.67 375.33 573.67 385.05 573.67 397.00 C 573.67 408.95 582.67 418.67 593.67 418.67 C 604.67 418.67 613.67 408.95 613.67 397.00 C 613.67 385.05 604.69 375.33 593.67 375.33 Z" fill="#a89b9c" fill-rule="nonzero" node-id="293" stroke="none" target-height="50" target-width="46.669983" target-x="570.33" target-y="372"></path><path d="M 615.33 397.83 C 615.33 402.47 613.66 406.92 610.69 410.20 C 607.72 413.49 603.70 415.33 599.50 415.33 C 595.30 415.33 591.28 413.49 588.31 410.20 C 585.34 406.92 583.67 402.47 583.67 397.83 C 583.67 393.19 585.34 388.74 588.31 385.46 C 591.28 382.17 595.30 380.33 599.50 380.33 C 603.70 380.33 607.72 382.17 610.69 385.46 C 613.66 388.74 615.33 393.19 615.33 397.83 Z" fill="#ffffff" fill-rule="nonzero" node-id="295" stroke="none" target-height="35" target-width="31.660034" target-x="583.67" target-y="380.33"></path><path d="M 599.50 417.00 C 589.85 417.00 582.00 408.40 582.00 397.83 C 582.00 387.26 589.85 378.67 599.50 378.67 C 609.15 378.67 617.00 387.27 617.00 397.83 C 617.00 408.39 609.15 417.00 599.50 417.00 Z M 599.50 382.00 C 591.69 382.00 585.33 389.10 585.33 397.83 C 585.33 406.56 591.69 413.67 599.50 413.67 C 607.31 413.67 613.67 406.56 613.67 397.83 C 613.67 389.10 607.31 382.00 599.50 382.00 Z" fill="#a89b9c" fill-rule="nonzero" node-id="297" stroke="none" target-height="38.330017" target-width="35" target-x="582" target-y="378.66998"></path><path d="M 512.00 296.00 C 523.10 295.73 532.20 304.16 532.45 314.68 C 532.70 325.20 524.05 334.00 513.00 334.28 C 501.95 334.56 492.80 326.12 492.54 315.60 C 492.28 305.08 500.92 296.23 512.00 296.00 Z" fill="#bd9c9c" fill-rule="nonzero" node-id="299" stroke="none" target-height="38.829987" target-width="40.420013" target-x="492.28" target-y="295.73"></path><path d="M 512.44 336.00 C 500.74 336.00 491.10 327.00 490.83 315.69 C 490.55 304.21 500.04 294.63 511.99 294.34 L 511.99 294.34 C 523.93 294.05 533.87 303.16 534.15 314.65 C 534.28 320.22 532.11 325.60 528.15 329.53 C 524.13 333.57 518.70 335.89 513.00 336.00 Z M 512.07 297.67 C 501.96 297.92 493.93 305.96 494.16 315.61 C 494.39 325.26 502.80 332.88 512.91 332.66 C 517.75 332.58 522.38 330.62 525.79 327.18 C 529.09 323.89 530.90 319.39 530.79 314.73 C 530.55 305.08 522.14 297.44 512.04 297.67 Z" fill="#a89b9c" fill-rule="nonzero" node-id="301" stroke="none" target-height="41.950012" target-width="43.725708" target-x="490.55" target-y="294.05"></path><path d="M 546.28 329.38 C 546.50 338.33 532.37 345.94 514.73 346.38 C 497.09 346.82 479.73 337.64 479.50 328.69 C 479.27 319.74 496.30 314.39 513.94 313.96 C 520.94 313.79 526.68 307.69 532.00 309.51 C 540.00 312.25 546.15 324.00 546.28 329.38 Z" fill="#bd9c9c" fill-rule="nonzero" node-id="303" stroke="none" target-height="39.130005" target-width="67.23004" target-x="479.26996" target-y="307.69"></path><g node-id="386"><path d="M 298.67 452.00 L 298.67 452.00 Z M 278.45 485.33 L 278.45 482.00 L 276.29 482.00 L 275.41 484.00 Z M 276.45 489.68 L 279.45 491.05 L 279.45 491.05 Z M 270.66 490.18 L 267.90 492.06 L 267.90 492.06 Z M 267.36 485.33 L 270.12 483.46 L 269.12 482.00 L 267.40 482.00 Z M 232.00 477.00 L 232.00 477.00 Z M 290.33 443.67 L 290.33 447.00 C 293.09 447.00 295.33 449.24 295.33 452.00 L 302.00 452.00 C 302.00 445.55 296.78 440.33 290.33 440.33 Z M 298.67 452.00 L 295.33 452.00 L 295.33 477.00 L 302.00 477.00 L 302.00 452.00 Z M 298.67 477.00 L 295.33 477.00 C 295.33 479.76 293.09 482.00 290.33 482.00 L 290.33 488.67 C 296.78 488.67 302.00 483.45 302.00 477.00 Z M 290.33 485.33 L 290.33 482.00 L 278.45 482.00 L 278.45 488.67 L 290.33 488.67 Z M 278.45 485.33 L 275.45 483.96 L 273.45 488.31 L 276.45 489.68 L 279.45 491.05 L 281.45 486.70 Z M 276.45 489.68 L 273.45 488.31 L 273.45 488.31 L 270.70 490.18 L 267.94 492.06 C 269.30 494.05 271.62 495.16 274.03 494.95 C 276.43 494.75 278.53 493.26 279.53 491.06 Z M 270.66 490.18 L 273.41 488.31 L 270.12 483.46 L 267.36 485.33 L 264.60 487.21 L 267.90 492.06 Z M 267.36 485.33 L 267.36 482.00 L 240.33 482.00 L 240.33 488.67 L 267.40 488.67 Z M 240.29 485.33 L 240.29 482.00 C 237.53 482.00 235.29 479.76 235.29 477.00 L 228.63 477.00 C 228.63 483.44 233.85 488.66 240.29 488.67 Z M 232.00 477.00 L 235.33 477.00 L 235.33 452.00 L 228.67 452.00 L 228.67 477.00 Z M 232.00 452.00 L 235.33 452.00 C 235.33 449.24 237.57 447.00 240.33 447.00 L 240.33 440.33 C 233.89 440.34 228.67 445.56 228.67 452.00 Z M 240.33 443.67 L 240.33 447.00 L 290.33 447.00 L 290.33 440.33 L 240.33 440.33 Z" fill="#a89b9c" fill-rule="nonzero" group-id="13" node-id="307" stroke="none" target-height="54.83026" target-width="73.37001" target-x="228.62999" target-y="440.33"></path></g><path d="M 256.52 459.05 C 256.84 458.92 257.18 458.85 257.52 458.84 C 257.93 458.81 258.34 458.97 258.62 459.27 C 258.88 459.54 259.02 459.90 259.02 460.27 C 259.03 460.38 259.03 460.48 259.02 460.59 C 258.93 461.02 258.70 461.41 258.38 461.71 C 257.94 462.03 257.46 462.27 256.94 462.43 L 248.49 465.28 L 255.42 467.98 C 255.87 468.13 256.27 468.39 256.59 468.75 C 256.84 469.02 256.98 469.38 256.99 469.75 C 256.99 469.92 256.97 470.10 256.91 470.26 C 256.77 470.88 256.19 471.31 255.55 471.26 C 255.13 471.24 254.71 471.13 254.33 470.96 L 243.45 466.46 C 242.78 466.17 242.45 465.76 242.45 465.23 C 242.46 465.11 242.47 464.99 242.50 464.88 C 242.55 464.56 242.72 464.27 242.96 464.06 C 243.25 463.81 243.59 463.62 243.96 463.50 Z M 261.36 474.60 C 261.18 474.90 260.94 475.16 260.66 475.37 C 260.45 475.52 260.20 475.61 259.94 475.61 C 259.62 475.63 259.30 475.51 259.06 475.29 C 258.85 475.10 258.74 474.83 258.74 474.55 C 258.75 474.28 258.83 474.02 258.98 473.80 L 271.30 455.00 C 271.58 454.43 272.14 454.05 272.77 454.00 C 273.08 453.98 273.38 454.10 273.60 454.32 C 273.81 454.52 273.92 454.80 273.92 455.09 C 273.92 455.37 273.83 455.64 273.68 455.87 Z M 288.19 463.60 C 288.76 463.75 289.16 464.25 289.19 464.83 C 289.19 464.95 289.17 465.06 289.13 465.17 C 289.08 465.50 288.92 465.80 288.68 466.03 C 288.38 466.26 288.04 466.44 287.68 466.56 L 275.15 471.09 C 274.83 471.22 274.49 471.30 274.15 471.31 C 273.73 471.34 273.32 471.18 273.03 470.88 C 272.79 470.60 272.65 470.25 272.66 469.88 C 272.65 469.77 272.65 469.67 272.66 469.56 C 272.75 469.13 272.97 468.75 273.30 468.46 C 273.73 468.13 274.22 467.88 274.74 467.72 L 283.19 464.86 L 276.26 462.17 C 275.81 462.02 275.41 461.76 275.08 461.42 C 274.83 461.12 274.68 460.75 274.68 460.36 C 274.68 460.19 274.71 460.01 274.76 459.85 C 274.91 459.23 275.48 458.80 276.12 458.85 C 276.54 458.87 276.96 458.97 277.35 459.14 Z" fill="#a89b9c" fill-rule="nonzero" node-id="310" stroke="none" target-height="21.64679" target-width="46.740005" target-x="242.45" target-y="453.98248"></path><g node-id="387"><path d="M 192.00 318.67 L 192.00 318.67 Z M 200.33 362.42 L 200.33 362.42 Z M 192.00 370.75 L 192.00 370.75 Z M 175.06 370.75 L 175.06 367.42 L 172.91 367.42 L 172.02 369.42 Z M 172.00 377.54 L 175.00 378.91 L 175.00 378.91 Z M 166.21 378.04 L 163.45 379.92 L 163.45 379.92 Z M 161.21 370.75 L 163.96 368.88 L 162.96 367.42 L 161.20 367.42 Z M 125.29 370.75 L 125.29 374.08 L 125.29 374.08 Z M 117.00 327.00 L 117.00 327.00 Z M 125.33 318.67 L 125.33 318.67 Z M 192.00 318.67 L 192.00 322.00 C 194.76 322.00 197.00 324.24 197.00 327.00 L 203.67 327.00 C 203.66 320.56 198.44 315.34 192.00 315.33 Z M 200.33 327.00 L 197.00 327.00 L 197.00 362.42 L 203.67 362.42 L 203.67 327.00 Z M 200.33 362.42 L 197.00 362.42 C 197.00 365.18 194.76 367.42 192.00 367.42 L 192.00 374.08 C 198.44 374.08 203.66 368.86 203.67 362.42 Z M 192.00 370.75 L 192.00 367.42 L 175.06 367.42 L 175.06 374.08 L 192.00 374.08 Z M 175.06 370.75 L 172.06 369.38 L 169.00 376.17 L 172.00 377.54 L 175.00 378.91 L 178.06 372.12 Z M 172.00 377.54 L 169.00 376.17 L 169.00 376.17 L 166.21 378.00 L 163.45 379.88 C 164.81 381.87 167.13 382.98 169.54 382.77 C 171.94 382.57 174.04 381.08 175.04 378.88 Z M 166.21 378.04 L 168.96 376.17 L 163.96 368.88 L 161.21 370.75 L 158.45 372.62 L 163.45 379.92 Z M 161.21 370.75 L 161.21 367.42 L 125.33 367.42 L 125.33 374.08 L 161.25 374.08 Z M 125.29 370.75 L 125.29 367.42 C 122.53 367.42 120.29 365.18 120.29 362.42 L 113.63 362.42 C 113.63 368.86 118.85 374.08 125.29 374.08 Z M 117.00 362.42 L 120.33 362.42 L 120.33 327.00 L 113.67 327.00 L 113.67 362.42 Z M 117.00 327.00 L 120.33 327.00 C 120.33 324.24 122.57 322.00 125.33 322.00 L 125.33 315.33 C 118.89 315.34 113.67 320.56 113.67 327.00 Z M 125.33 318.67 L 125.33 322.00 L 192.00 322.00 L 192.00 315.33 L 125.33 315.33 Z" fill="#a89b9c" fill-rule="nonzero" group-id="14" node-id="314" stroke="none" target-height="67.65027" target-width="90.04001" target-x="113.62999" target-y="315.33"></path></g><path d="M 132.57 335.92 L 135.57 335.92 L 135.57 343.39 C 136.03 342.66 136.69 342.07 137.46 341.68 C 138.18 341.32 138.98 341.15 139.78 341.17 C 141.19 341.05 142.58 341.60 143.54 342.64 C 144.41 343.85 144.83 345.32 144.72 346.80 L 144.72 355.33 L 141.72 355.33 L 141.72 347.33 C 141.78 346.38 141.53 345.44 141.02 344.64 C 140.45 343.95 139.58 343.58 138.68 343.64 C 137.79 343.61 136.95 344.03 136.44 344.76 C 135.85 345.59 135.56 346.60 135.61 347.62 L 135.61 355.32 L 132.61 355.32 Z M 152.28 337.09 L 152.28 341.55 L 155.35 341.55 L 155.35 344.05 L 152.28 344.05 L 152.28 351.84 C 152.26 352.11 152.34 352.38 152.50 352.59 C 152.69 352.76 152.94 352.85 153.19 352.83 L 155.00 352.83 L 155.00 355.33 L 152.68 355.33 C 151.70 355.40 150.73 355.04 150.04 354.33 C 149.46 353.62 149.18 352.71 149.24 351.80 L 149.24 344.01 L 146.76 344.01 L 146.76 341.51 L 149.24 341.51 L 149.24 338.31 Z M 164.40 341.17 C 166.15 341.03 167.84 341.90 168.74 343.41 C 169.25 342.67 169.94 342.06 170.74 341.65 C 171.46 341.31 172.26 341.14 173.06 341.17 C 174.39 341.13 175.68 341.64 176.61 342.59 C 177.55 343.59 178.05 344.92 178.00 346.29 L 178.00 355.29 L 175.00 355.29 L 175.00 346.79 C 175.08 345.94 174.83 345.09 174.30 344.41 C 173.67 343.85 172.84 343.59 172.01 343.67 C 171.29 343.65 170.60 343.96 170.14 344.52 C 169.58 345.17 169.31 346.02 169.37 346.87 L 169.37 355.29 L 166.37 355.29 L 166.37 346.81 C 166.37 344.71 165.46 343.67 163.65 343.67 C 162.83 343.64 162.04 344.01 161.54 344.67 C 161.00 345.33 160.72 346.17 160.74 347.02 L 160.74 355.28 L 157.74 355.28 L 157.74 341.55 L 160.74 341.55 L 160.74 343.00 C 161.65 341.91 162.98 341.24 164.40 341.17 Z M 181.46 335.92 L 184.46 335.92 L 184.46 355.33 L 181.46 355.33 Z" fill="#a89b9c" fill-rule="nonzero" node-id="317" stroke="none" target-height="19.48462" target-width="51.89" target-x="132.57" target-y="335.92"></path><g node-id="388"><path d="M 744.84 366.75 L 744.47 363.43 L 742.80 363.62 L 741.96 365.08 Z M 742.10 371.49 L 744.99 373.16 L 744.99 373.16 Z M 739.22 371.49 L 736.33 373.16 L 736.33 373.16 Z M 736.52 366.82 L 739.40 365.15 L 738.55 363.66 L 736.83 363.50 Z M 740.33 287.00 L 740.33 290.33 C 760.58 290.33 777.00 306.75 777.00 327.00 L 783.67 327.00 C 783.67 315.51 779.10 304.48 770.98 296.36 C 762.85 288.23 751.82 283.67 740.33 283.67 Z M 780.33 327.00 L 777.00 327.00 C 777.00 345.65 763.00 361.32 744.47 363.43 L 744.84 366.75 L 745.21 370.06 C 767.11 367.57 783.66 349.04 783.67 327.00 Z M 744.84 366.75 L 742.00 365.08 L 739.26 369.83 L 742.14 371.49 L 745.03 373.16 L 747.77 368.41 Z M 742.10 371.49 L 739.22 369.82 C 739.52 369.30 740.07 368.99 740.66 368.99 C 741.25 368.99 741.80 369.30 742.10 369.82 L 739.22 371.49 L 736.33 373.16 C 737.22 374.71 738.87 375.66 740.66 375.66 C 742.45 375.66 744.10 374.71 744.99 373.16 Z M 739.22 371.49 L 742.10 369.82 L 739.40 365.15 L 736.52 366.82 L 733.63 368.48 L 736.33 373.16 Z M 736.52 366.82 L 736.83 363.50 C 718.02 361.70 703.67 345.89 703.67 327.00 L 697.00 327.00 C 697.00 349.33 713.98 368.01 736.21 370.13 Z M 700.33 327.00 L 703.67 327.00 C 703.67 317.28 707.53 307.95 714.40 301.07 C 721.28 294.19 730.61 290.33 740.33 290.33 L 740.33 283.67 C 716.40 283.67 697.00 303.07 697.00 327.00 Z" fill="#a89b9c" fill-rule="nonzero" group-id="15" node-id="321" stroke="none" target-height="91.99246" target-width="86.66998" target-x="697" target-y="283.66736"></path></g><path d="M 750.33 327.83 C 750.33 329.21 749.21 330.33 747.83 330.33 C 746.45 330.33 745.33 329.21 745.33 327.83 C 745.33 326.45 746.45 325.33 747.83 325.33 C 749.21 325.33 750.33 326.45 750.33 327.83 Z" fill="#a89b9c" fill-rule="nonzero" node-id="324" stroke="none" target-height="5" target-width="5" target-x="745.33" target-y="325.33"></path><path d="M 737.00 327.83 C 737.00 329.21 735.88 330.33 734.50 330.33 C 733.12 330.33 732.00 329.21 732.00 327.83 C 732.00 326.45 733.12 325.33 734.50 325.33 C 735.88 325.33 737.00 326.45 737.00 327.83 Z" fill="#a89b9c" fill-rule="nonzero" node-id="326" stroke="none" target-height="5" target-width="5" target-x="732" target-y="325.33"></path><path d="M 723.67 327.83 C 723.67 329.21 722.55 330.33 721.17 330.33 C 719.79 330.33 718.67 329.21 718.67 327.83 C 718.67 326.45 719.79 325.33 721.17 325.33 C 722.55 325.33 723.67 326.45 723.67 327.83 Z" fill="#a89b9c" fill-rule="nonzero" node-id="328" stroke="none" target-height="5" target-width="5" target-x="718.67" target-y="325.33"></path><path d="M 763.67 327.83 C 763.67 329.21 762.55 330.33 761.17 330.33 C 759.79 330.33 758.67 329.21 758.67 327.83 C 758.67 326.45 759.79 325.33 761.17 325.33 C 762.55 325.33 763.67 326.45 763.67 327.83 Z" fill="#a89b9c" fill-rule="nonzero" node-id="330" stroke="none" target-height="5" target-width="5" target-x="758.67" target-y="325.33"></path><path d="M 313.67 662.00 C 313.67 670.28 306.95 677.00 298.67 677.00 C 290.39 677.00 283.67 670.28 283.67 662.00 C 283.67 653.71 290.38 649.50 298.67 649.50 C 306.96 649.50 313.67 653.71 313.67 662.00 Z" fill="#ffffff" fill-rule="nonzero" node-id="332" stroke="none" target-height="27.5" target-width="30" target-x="283.67" target-y="649.5"></path><path d="M 299.05 658.76 L 298.68 658.76 C 297.12 658.63 295.68 657.88 294.68 656.68 C 294.40 656.31 294.48 655.79 294.85 655.51 C 295.21 655.24 295.73 655.31 296.01 655.68 C 296.72 656.50 297.73 657.01 298.81 657.09 C 300.12 657.13 301.39 656.58 302.25 655.59 C 302.58 655.26 303.10 655.26 303.43 655.59 C 303.76 655.92 303.76 656.44 303.43 656.77 C 302.30 658.00 300.72 658.72 299.05 658.76 Z" fill="#e0b8b8" fill-rule="nonzero" node-id="334" stroke="none" target-height="3.5211792" target-width="9.35199" target-x="294.40387" target-y="655.23883"></path><path d="M 299.00 657.00 C 298.23 657.00 297.56 656.48 297.38 655.74 C 296.68 652.94 296.51 647.20 300.88 645.45 C 301.73 645.14 302.67 645.56 303.01 646.40 C 303.35 647.24 302.95 648.19 302.12 648.55 C 299.82 649.47 300.27 653.55 300.61 654.93 C 300.82 655.82 300.28 656.71 299.40 656.93 C 299.27 656.97 299.14 656.99 299.00 657.00 Z" fill="#ffffff" fill-rule="nonzero" node-id="336" stroke="none" target-height="11.867554" target-width="6.835083" target-x="296.51" target-y="645.13654"></path><path d="M 474.34 704.54 C 473.94 704.54 473.55 704.40 473.25 704.13 L 464.78 696.79 C 464.28 696.42 464.03 695.79 464.14 695.18 C 464.24 694.56 464.68 694.06 465.27 693.87 C 465.87 693.67 466.52 693.83 466.96 694.27 L 475.43 701.62 C 475.96 702.07 476.15 702.81 475.90 703.46 C 475.66 704.11 475.04 704.54 474.34 704.54 Z" fill="#a89b9c" fill-rule="nonzero" node-id="338" stroke="none" target-height="10.870117" target-width="12.115295" target-x="464.0327" target-y="693.674"></path><path d="M 482.05 697.50 C 481.34 697.50 480.71 697.06 480.48 696.39 L 476.77 685.81 C 476.47 684.94 476.93 684.00 477.80 683.69 C 478.66 683.39 479.61 683.84 479.92 684.70 L 483.62 695.29 C 483.77 695.70 483.75 696.16 483.56 696.56 C 483.37 696.96 483.03 697.26 482.62 697.41 C 482.44 697.47 482.24 697.50 482.05 697.50 Z" fill="#a89b9c" fill-rule="nonzero" node-id="340" stroke="none" target-height="14.111206" target-width="7.296875" target-x="476.47372" target-y="683.3904"></path><path d="M 491.00 698.31 C 490.41 698.31 489.86 697.99 489.56 697.48 C 489.26 696.97 489.26 696.34 489.55 695.82 L 495.12 686.08 C 495.61 685.35 496.58 685.12 497.34 685.56 C 498.11 686.00 498.40 686.95 498.01 687.74 L 492.45 697.47 C 492.15 697.99 491.60 698.31 491.00 698.31 Z" fill="#a89b9c" fill-rule="nonzero" node-id="342" stroke="none" target-height="13.191772" target-width="9.138306" target-x="489.25897" target-y="685.1185"></path><path d="M 299.50 335.33 C 295.79 335.33 292.45 333.09 291.03 329.67 C 289.61 326.24 290.39 322.29 293.02 319.67 C 295.64 317.05 299.59 316.27 303.02 317.69 C 306.44 319.11 308.67 322.46 308.67 326.17 C 308.66 331.23 304.56 335.32 299.50 335.33 Z M 299.50 320.33 C 297.14 320.33 295.00 321.75 294.10 323.93 C 293.19 326.11 293.69 328.62 295.36 330.30 C 297.03 331.97 299.54 332.47 301.72 331.57 C 303.91 330.66 305.33 328.53 305.33 326.17 C 305.33 322.95 302.72 320.34 299.50 320.33 Z" fill="#a89b9c" fill-rule="nonzero" node-id="344" stroke="none" target-height="19.061584" target-width="19.065735" target-x="289.6083" target-y="316.2684"></path><path d="M 361.17 369.38 C 361.17 371.81 360.20 374.14 358.48 375.86 C 356.76 377.58 354.43 378.55 352.00 378.55 C 349.57 378.55 347.24 377.58 345.52 375.86 C 343.80 374.14 342.83 371.81 342.83 369.38 C 342.83 366.95 343.80 364.62 345.52 362.90 C 347.24 361.18 349.57 360.21 352.00 360.21 C 354.43 360.21 356.76 361.18 358.48 362.90 C 360.20 364.62 361.17 366.95 361.17 369.38 Z" fill="#fadbdb" fill-rule="nonzero" node-id="346" stroke="none" target-height="18.340027" target-width="18.340027" target-x="342.83" target-y="360.21"></path><path d="M 665.34 412.83 C 665.34 417.89 661.23 422.00 656.17 422.00 C 651.11 422.00 647.00 417.89 647.00 412.83 C 647.00 407.77 651.11 403.66 656.17 403.66 C 661.23 403.66 665.34 407.77 665.34 412.83 Z" fill="#fadbdb" fill-rule="nonzero" node-id="348" stroke="none" target-height="18.340027" target-width="18.339966" target-x="647" target-y="403.65997"></path><path d="M 440.34 457.83 C 440.34 460.26 439.37 462.59 437.65 464.31 C 435.93 466.03 433.60 467.00 431.17 467.00 C 428.74 467.00 426.41 466.03 424.69 464.31 C 422.97 462.59 422.00 460.26 422.00 457.83 C 422.00 455.40 422.97 453.07 424.69 451.35 C 426.41 449.63 428.74 448.66 431.17 448.66 C 433.60 448.66 435.93 449.63 437.65 451.35 C 439.37 453.07 440.34 455.40 440.34 457.83 Z" fill="#fadbdb" fill-rule="nonzero" node-id="350" stroke="none" target-height="18.339996" target-width="18.340027" target-x="422" target-y="448.66"></path><path d="M 865.33 678.67 C 860.72 678.67 856.99 674.94 856.99 670.33 C 856.99 665.72 860.72 661.99 865.33 661.99 C 869.94 661.99 873.67 665.72 873.67 670.33 C 873.66 674.93 869.93 678.66 865.33 678.67 Z M 865.33 665.33 C 862.57 665.33 860.33 667.57 860.33 670.33 C 860.33 673.09 862.57 675.33 865.33 675.33 C 868.09 675.33 870.33 673.09 870.33 670.33 C 870.33 667.57 868.09 665.33 865.33 665.33 Z" fill="#a89b9c" fill-rule="nonzero" node-id="352" stroke="none" target-height="16.679993" target-width="16.679932" target-x="856.99005" target-y="661.99"></path><path d="M 389.94 270.85 C 389.56 270.85 389.18 270.72 388.89 270.47 L 380.50 263.62 C 379.86 263.02 379.79 262.02 380.35 261.34 C 380.90 260.66 381.89 260.53 382.61 261.04 L 391.00 267.89 C 391.58 268.33 391.81 269.09 391.57 269.78 C 391.32 270.46 390.67 270.91 389.94 270.89 Z" fill="#a89b9c" fill-rule="nonzero" node-id="354" stroke="none" target-height="10.384003" target-width="12.018707" target-x="379.78903" target-y="260.52823"></path><path d="M 382.32 271.61 C 381.67 271.61 381.08 271.24 380.81 270.66 C 380.53 270.08 380.62 269.39 381.03 268.89 L 387.89 260.51 C 388.25 260.00 388.87 259.74 389.48 259.83 C 390.10 259.91 390.62 260.34 390.82 260.92 C 391.03 261.51 390.89 262.16 390.47 262.62 L 383.61 271.00 C 383.30 271.39 382.82 271.61 382.32 271.61 Z" fill="#a89b9c" fill-rule="nonzero" node-id="356" stroke="none" target-height="11.874512" target-width="10.499847" target-x="380.53088" target-y="259.74036"></path><path d="M 845.16 570.16 C 844.72 570.16 844.29 569.98 843.98 569.67 L 836.32 562.00 C 835.87 561.58 835.69 560.96 835.84 560.36 C 835.99 559.77 836.45 559.31 837.04 559.16 C 837.64 559.01 838.26 559.19 838.68 559.64 L 846.33 567.30 C 846.81 567.78 846.95 568.49 846.69 569.11 C 846.44 569.74 845.83 570.15 845.16 570.15 Z" fill="#a89b9c" fill-rule="nonzero" node-id="358" stroke="none" target-height="11.154541" target-width="11.263367" target-x="835.6854" target-y="559.00543"></path><path d="M 837.50 570.16 C 836.83 570.16 836.22 569.75 835.96 569.13 C 835.70 568.51 835.84 567.79 836.32 567.31 L 843.98 559.65 C 844.64 559.08 845.63 559.12 846.25 559.74 C 846.87 560.36 846.90 561.35 846.33 562.01 L 838.68 569.67 C 838.36 569.98 837.94 570.16 837.50 570.16 Z" fill="#a89b9c" fill-rule="nonzero" node-id="360" stroke="none" target-height="11.07782" target-width="11.200134" target-x="835.70056" target-y="559.08215"></path><path d="M 176.82 541.82 C 176.38 541.82 175.96 541.64 175.65 541.33 L 168.00 533.68 C 167.52 533.27 167.32 532.63 167.46 532.02 C 167.61 531.41 168.08 530.94 168.69 530.79 C 169.30 530.64 169.94 530.85 170.35 531.32 L 178.00 539.00 C 178.31 539.31 178.49 539.73 178.49 540.17 C 178.49 540.62 178.31 541.04 178.00 541.35 C 177.69 541.66 177.26 541.83 176.82 541.82 Z" fill="#a89b9c" fill-rule="nonzero" node-id="362" stroke="none" target-height="11.189087" target-width="11.171616" target-x="167.3158" target-y="530.64026"></path><path d="M 169.16 541.82 C 168.50 541.81 167.90 541.40 167.65 540.79 C 167.40 540.18 167.54 539.47 168.00 539.00 L 175.66 531.34 C 176.32 530.77 177.31 530.81 177.93 531.43 C 178.55 532.05 178.58 533.04 178.01 533.70 L 170.35 541.35 C 170.03 541.66 169.60 541.83 169.16 541.82 Z" fill="#a89b9c" fill-rule="nonzero" node-id="364" stroke="none" target-height="11.059937" target-width="11.180847" target-x="167.39981" target-y="530.77216"></path><path d="M 103.67 761.17 C 103.67 760.71 104.04 760.34 104.50 760.33 L 112.83 760.33 C 113.29 760.34 113.66 760.71 113.67 761.17 C 113.66 761.63 113.29 762.00 112.83 762.00 L 104.50 762.00 C 104.04 762.00 103.67 761.63 103.67 761.17 Z" fill="#a89b9c" fill-rule="nonzero" node-id="366" stroke="none" target-height="1.670105" target-width="10.0000305" target-x="103.66997" target-y="760.33"></path><path d="M 95.33 761.17 C 95.34 760.71 95.71 760.34 96.17 760.33 L 99.50 760.33 C 99.96 760.34 100.33 760.71 100.33 761.17 C 100.33 761.63 99.96 762.00 99.50 762.00 L 96.17 762.00 C 95.71 762.00 95.34 761.63 95.33 761.17 Z" fill="#a89b9c" fill-rule="nonzero" node-id="368" stroke="none" target-height="1.670105" target-width="5.000038" target-x="95.329994" target-y="760.33"></path><path d="M 924.50 760.33 L 929.50 760.33 C 929.96 760.34 930.33 760.71 930.33 761.17 L 930.33 761.17 C 930.33 761.63 929.96 762.00 929.50 762.00 L 924.50 762.00 C 924.04 762.00 923.67 761.63 923.67 761.17 L 923.67 761.17 C 923.67 760.71 924.04 760.34 924.50 760.33 Z" fill="#a89b9c" fill-rule="nonzero" node-id="370" stroke="none" target-height="1.6699829" target-width="6.660095" target-x="923.67" target-y="760.33"></path><path d="M 932.83 760.33 L 934.50 760.33 C 934.96 760.34 935.33 760.71 935.33 761.17 L 935.33 761.17 C 935.33 761.63 934.96 762.00 934.50 762.00 L 932.83 762.00 C 932.37 762.00 932.00 761.63 932.00 761.17 L 932.00 761.17 C 932.00 760.71 932.37 760.34 932.83 760.33 Z" fill="#a89b9c" fill-rule="nonzero" node-id="372" stroke="none" target-height="1.6699829" target-width="3.3301392" target-x="931.9999" target-y="760.33"></path></svg>